999
dxflib 3.17.0.0
  0
SECTION
  2
HEADER
  9
$ACADVER
  1
AC1015
  9
$HANDSEED
  5
FFFF
  9
$ANGBASE
 50
0.0
  9
$ANGDIR
 70
1
  9
$DIMADEC
 70
0
  9
$DIMASZ
 40
0.18
  9
$DIMAUNIT
 70
0
  9
$DIMAZIN
 70
0
  9
$DIMDEC
 70
4
  9
$DIMDLI
 40
0.36
  9
$DIMDSEP
 70
46
  9
$DIMEXE
 40
0.18
  9
$DIMEXO
 40
0.0625
  9
$DIMGAP
 40
0.09
  9
$DIMLUNIT
 70
2
  9
$DIMSCALE
 40
1.0
  9
$DIMTSZ
 40
0.0
  9
$DIMTXT
 40
0.18
  9
$DIMZIN
 70
0
  9
$DWGCODEPAGE
  3
ANSI_1252
  9
$INSUNITS
 70
0
  9
$LTSCALE
 40
1.0
  9
$MAXACTVP
 70
64
  9
$MEASUREMENT
 70
1
  9
$MIRRTEXT
 70
0
  9
$PDMODE
 70
0
  9
$PDSIZE
 40
0.0
  0
ENDSEC
  0
SECTION
  2
TABLES
  0
TABLE
  2
VPORT
  5
8
100
AcDbSymbolTable
 70
1
  0
VPORT
  5
30
100
AcDbSymbolTableRecord
100
AcDbViewportTableRecord
  2
*Active
 70
0
 10
0.0
 20
0.0
 11
1.0
 21
1.0
 12
286.3055555555554861
 22
148.5
 13
0.0
 23
0.0
 14
10.0
 24
10.0
 15
10.0
 25
10.0
 16
0.0
 26
0.0
 36
1.0
 17
0.0
 27
0.0
 37
0.0
 40
297.0
 41
1.92798353909465
 42
50.0
 43
0.0
 44
0.0
 50
0.0
 51
0.0
 71
0
 72
100
 73
1
 74
3
 75
1
 76
1
 77
0
 78
0
281
0
 65
1
110
0.0
120
0.0
130
0.0
111
1.0
121
0.0
131
0.0
112
0.0
122
1.0
132
0.0
 79
0
146
0.0
  0
ENDTAB
  0
TABLE
  2
LTYPE
  5
5
100
AcDbSymbolTable
 70
42
  0
LTYPE
  5
16
100
AcDbSymbolTableRecord
100
AcDbLinetypeTableRecord
  2
CONTINUOUS
 70
0
  3
Solid line
 72
65
 73
0
 40
0.0
  0
LTYPE
  5
31
100
AcDbSymbolTableRecord
100
AcDbLinetypeTableRecord
  2
DASHED2
 70
0
  3
Dashed (.5x) _ _ _ _ _ _ _ _ _ _ _ _ _ _ _ _ _ 
 72
65
 73
2
 40
9.5249999999999986
 49
6.3499999999999996
 74
0
 49
-3.1749999999999998
 74
0
  0
LTYPE
  5
32
100
AcDbSymbolTableRecord
100
AcDbLinetypeTableRecord
  2
CENTERX2
 70
0
  3
Center (2x) ________  __  ________  __  _____
 72
65
 73
4
 40
101.6000000000000085
 49
63.5
 74
0
 49
-12.6999999999999993
 74
0
 49
12.6999999999999993
 74
0
 49
-12.6999999999999993
 74
0
  0
LTYPE
  5
33
100
AcDbSymbolTableRecord
100
AcDbLinetypeTableRecord
  2
ACAD_ISO08W100
 70
0
  3
ISO long-dash short-dash ____ __ ____ __ ____ _
 72
65
 73
4
 40
36.0
 49
24.0
 74
0
 49
-3.0
 74
0
 49
6.0
 74
0
 49
-3.0
 74
0
  0
LTYPE
  5
34
100
AcDbSymbolTableRecord
100
AcDbLinetypeTableRecord
  2
ACAD_ISO14W100
 70
0
  3
ISO dash triple-dot __ . . . __ . . . __ . . . _
 72
65
 73
8
 40
24.0
 49
12.0
 74
0
 49
-3.0
 74
0
 49
0.0
 74
0
 49
-3.0
 74
0
 49
0.0
 74
0
 49
-3.0
 74
0
 49
0.0
 74
0
 49
-3.0
 74
0
  0
LTYPE
  5
35
100
AcDbSymbolTableRecord
100
AcDbLinetypeTableRecord
  2
ACAD_ISO06W100
 70
0
  3
ISO long-dash triple-dot ____ ... ____ ... ____
 72
65
 73
8
 40
36.0
 49
24.0
 74
0
 49
-3.0
 74
0
 49
0.0
 74
0
 49
-3.0
 74
0
 49
0.0
 74
0
 49
-3.0
 74
0
 49
0.0
 74
0
 49
-3.0
 74
0
  0
LTYPE
  5
36
100
AcDbSymbolTableRecord
100
AcDbLinetypeTableRecord
  2
PHANTOM2
 70
0
  3
Phantom (.5x) ___ _ _ ___ _ _ ___ _ _ ___ _ _
 72
65
 73
6
 40
31.7500000000000036
 49
15.875
 74
0
 49
-3.1749999999999998
 74
0
 49
3.1749999999999998
 74
0
 49
-3.1749999999999998
 74
0
 49
3.1749999999999998
 74
0
 49
-3.1749999999999998
 74
0
  0
LTYPE
  5
37
100
AcDbSymbolTableRecord
100
AcDbLinetypeTableRecord
  2
CENTER
 70
0
  3
Center ____ _ ____ _ ____ _ ____ _ ____ _ ____
 72
65
 73
4
 40
50.8000000000000043
 49
31.75
 74
0
 49
-6.3499999999999996
 74
0
 49
6.3499999999999996
 74
0
 49
-6.3499999999999996
 74
0
  0
LTYPE
  5
38
100
AcDbSymbolTableRecord
100
AcDbLinetypeTableRecord
  2
DOT
 70
0
  3
Dot . . . . . . . . . . . . . . . . . . . . . . . .
 72
65
 73
2
 40
6.3499999999999996
 49
0.0
 74
0
 49
-6.3499999999999996
 74
0
  0
LTYPE
  5
39
100
AcDbSymbolTableRecord
100
AcDbLinetypeTableRecord
  2
BORDER
 70
0
  3
Border __ __ . __ __ . __ __ . __ __ . __ __ .
 72
65
 73
6
 40
44.4499999999999957
 49
12.6999999999999993
 74
0
 49
-6.3499999999999996
 74
0
 49
12.6999999999999993
 74
0
 49
-6.3499999999999996
 74
0
 49
0.0
 74
0
 49
-6.3499999999999996
 74
0
  0
LTYPE
  5
3A
100
AcDbSymbolTableRecord
100
AcDbLinetypeTableRecord
  2
ACAD_ISO10W100
 70
0
  3
ISO dash dot __ . __ . __ . __ . __ . __ . __ . 
 72
65
 73
4
 40
18.0
 49
12.0
 74
0
 49
-3.0
 74
0
 49
0.0
 74
0
 49
-3.0
 74
0
  0
LTYPE
  5
14
100
AcDbSymbolTableRecord
100
AcDbLinetypeTableRecord
  2
BYBLOCK
 70
0
  3

 72
65
 73
0
 40
0.0
  0
LTYPE
  5
3B
100
AcDbSymbolTableRecord
100
AcDbLinetypeTableRecord
  2
DOTTED
 70
0
  3
Dotted .  .  .  .
 72
65
 73
2
 40
0.2
 49
0.1
 74
0
 49
-0.1
 74
0
  0
LTYPE
  5
3C
100
AcDbSymbolTableRecord
100
AcDbLinetypeTableRecord
  2
ACAD_ISO15W100
 70
0
  3
ISO double-dash triple-dot __ __ . . . __ __ . .
 72
65
 73
10
 40
39.0
 49
12.0
 74
0
 49
-3.0
 74
0
 49
12.0
 74
0
 49
-3.0
 74
0
 49
0.0
 74
0
 49
-3.0
 74
0
 49
0.0
 74
0
 49
-3.0
 74
0
 49
0.0
 74
0
 49
-3.0
 74
0
  0
LTYPE
  5
3D
100
AcDbSymbolTableRecord
100
AcDbLinetypeTableRecord
  2
ACAD_ISO03W100
 70
0
  3
ISO dash space __    __    __    __    __    __
 72
65
 73
2
 40
30.0
 49
12.0
 74
0
 49
-18.0
 74
0
  0
LTYPE
  5
3E
100
AcDbSymbolTableRecord
100
AcDbLinetypeTableRecord
  2
DASHEDX2
 70
0
  3
Dashed (2x) ____  ____  ____  ____  ____  ___
 72
65
 73
2
 40
38.0999999999999943
 49
25.3999999999999986
 74
0
 49
-12.6999999999999993
 74
0
  0
LTYPE
  5
3F
100
AcDbSymbolTableRecord
100
AcDbLinetypeTableRecord
  2
ACAD_ISO04W100
 70
0
  3
ISO long-dash dot ____ . ____ . ____ . ____ . _
 72
65
 73
4
 40
30.0
 49
24.0
 74
0
 49
-3.0
 74
0
 49
0.0
 74
0
 49
-3.0
 74
0
  0
LTYPE
  5
40
100
AcDbSymbolTableRecord
100
AcDbLinetypeTableRecord
  2
ACAD_ISO05W100
 70
0
  3
ISO long-dash double-dot ____ .. ____ .. ____ . 
 72
65
 73
6
 40
33.0
 49
24.0
 74
0
 49
-3.0
 74
0
 49
0.0
 74
0
 49
-3.0
 74
0
 49
0.0
 74
0
 49
-3.0
 74
0
  0
LTYPE
  5
41
100
AcDbSymbolTableRecord
100
AcDbLinetypeTableRecord
  2
BORDER2
 70
0
  3
Border (.5x) __.__.__.__.__.__.__.__.__.__.__.
 72
65
 73
6
 40
22.2249999999999979
 49
6.3499999999999996
 74
0
 49
-3.1749999999999998
 74
0
 49
6.3499999999999996
 74
0
 49
-3.1749999999999998
 74
0
 49
0.0
 74
0
 49
-3.1749999999999998
 74
0
  0
LTYPE
  5
42
100
AcDbSymbolTableRecord
100
AcDbLinetypeTableRecord
  2
HIDDEN2
 70
0
  3
Hidden (.5x) _ _ _ _ _ _ _ _ _ _ _ _ _ _ _ _ _ 
 72
65
 73
2
 40
4.7624999999999993
 49
3.1749999999999998
 74
0
 49
-1.5874999999999999
 74
0
  0
LTYPE
  5
43
100
AcDbSymbolTableRecord
100
AcDbLinetypeTableRecord
  2
HIDDENX2
 70
0
  3
Hidden (2x) ____ ____ ____ ____ ____ ____ ____ 
 72
65
 73
2
 40
19.0499999999999972
 49
12.6999999999999993
 74
0
 49
-6.3499999999999996
 74
0
  0
LTYPE
  5
44
100
AcDbSymbolTableRecord
100
AcDbLinetypeTableRecord
  2
DIVIDE2
 70
0
  3
Divide (.5x) __..__..__..__..__..__..__..__.._
 72
65
 73
6
 40
15.875
 49
6.3499999999999996
 74
0
 49
-3.1749999999999998
 74
0
 49
0.0
 74
0
 49
-3.1749999999999998
 74
0
 49
0.0
 74
0
 49
-3.1749999999999998
 74
0
  0
LTYPE
  5
45
100
AcDbSymbolTableRecord
100
AcDbLinetypeTableRecord
  2
HIDDEN
 70
0
  3
Hidden __ __ __ __ __ __ __ __ __ __ __ __ __ __
 72
65
 73
2
 40
9.5249999999999986
 49
6.3499999999999996
 74
0
 49
-3.1749999999999998
 74
0
  0
LTYPE
  5
46
100
AcDbSymbolTableRecord
100
AcDbLinetypeTableRecord
  2
ACAD_ISO12W100
 70
0
  3
ISO dash double-dot __ . . __ . . __ . . __ . . 
 72
65
 73
6
 40
21.0
 49
12.0
 74
0
 49
-3.0
 74
0
 49
0.0
 74
0
 49
-3.0
 74
0
 49
0.0
 74
0
 49
-3.0
 74
0
  0
LTYPE
  5
47
100
AcDbSymbolTableRecord
100
AcDbLinetypeTableRecord
  2
ACAD_ISO02W100
 70
0
  3
ISO dash __ __ __ __ __ __ __ __ __ __ __ __ __
 72
65
 73
2
 40
15.0
 49
12.0
 74
0
 49
-3.0
 74
0
  0
LTYPE
  5
48
100
AcDbSymbolTableRecord
100
AcDbLinetypeTableRecord
  2
DIVIDE
 70
0
  3
Divide ____ . . ____ . . ____ . . ____ . . ____
 72
65
 73
6
 40
31.75
 49
12.6999999999999993
 74
0
 49
-6.3499999999999996
 74
0
 49
0.0
 74
0
 49
-6.3499999999999996
 74
0
 49
0.0
 74
0
 49
-6.3499999999999996
 74
0
  0
LTYPE
  5
49
100
AcDbSymbolTableRecord
100
AcDbLinetypeTableRecord
  2
ACAD_ISO13W100
 70
0
  3
ISO double-dash double-dot __ __ . . __ __ . . _
 72
65
 73
8
 40
36.0
 49
12.0
 74
0
 49
-3.0
 74
0
 49
12.0
 74
0
 49
-3.0
 74
0
 49
0.0
 74
0
 49
-3.0
 74
0
 49
0.0
 74
0
 49
-3.0
 74
0
  0
LTYPE
  5
4A
100
AcDbSymbolTableRecord
100
AcDbLinetypeTableRecord
  2
DASHDOT2
 70
0
  3
Dash dot (.5x) _._._._._._._._._._._._._._._.
 72
65
 73
4
 40
12.6999999999999993
 49
6.3499999999999996
 74
0
 49
-3.1749999999999998
 74
0
 49
0.0
 74
0
 49
-3.1749999999999998
 74
0
  0
LTYPE
  5
4B
100
AcDbSymbolTableRecord
100
AcDbLinetypeTableRecord
  2
DASHED
 70
0
  3
Dashed __ __ __ __ __
 72
65
 73
2
 40
0.75
 49
0.5
 74
0
 49
-0.25
 74
0
  0
LTYPE
  5
4C
100
AcDbSymbolTableRecord
100
AcDbLinetypeTableRecord
  2
DOTX2
 70
0
  3
Dot (2x) .  .  .  .  .  .  .  .  .  .  .  .  .  .
 72
65
 73
2
 40
12.6999999999999993
 49
0.0
 74
0
 49
-12.6999999999999993
 74
0
  0
LTYPE
  5
4D
100
AcDbSymbolTableRecord
100
AcDbLinetypeTableRecord
  2
ACAD_ISO09W100
 70
0
  3
ISO long-dash double-short-dash ____ __ __ ____
 72
65
 73
6
 40
45.0
 49
24.0
 74
0
 49
-3.0
 74
0
 49
6.0
 74
0
 49
-3.0
 74
0
 49
6.0
 74
0
 49
-3.0
 74
0
  0
LTYPE
  5
4E
100
AcDbSymbolTableRecord
100
AcDbLinetypeTableRecord
  2
PHANTOM
 70
0
  3
Phantom ______  __  __  ______  __  __  ______ 
 72
65
 73
6
 40
63.5000000000000071
 49
31.75
 74
0
 49
-6.3499999999999996
 74
0
 49
6.3499999999999996
 74
0
 49
-6.3499999999999996
 74
0
 49
6.3499999999999996
 74
0
 49
-6.3499999999999996
 74
0
  0
LTYPE
  5
4F
100
AcDbSymbolTableRecord
100
AcDbLinetypeTableRecord
  2
DASHDOT
 70
0
  3
Dash Dot ____ _ ____ _
 72
65
 73
4
 40
2.0
 49
1.25
 74
0
 49
-0.25
 74
0
 49
0.25
 74
0
 49
-0.25
 74
0
  0
LTYPE
  5
50
100
AcDbSymbolTableRecord
100
AcDbLinetypeTableRecord
  2
BORDERX2
 70
0
  3
Border (2x) ____  ____  .  ____  ____  .  ___
 72
65
 73
6
 40
88.8999999999999915
 49
25.3999999999999986
 74
0
 49
-12.6999999999999993
 74
0
 49
25.3999999999999986
 74
0
 49
-12.6999999999999993
 74
0
 49
0.0
 74
0
 49
-12.6999999999999993
 74
0
  0
LTYPE
  5
51
100
AcDbSymbolTableRecord
100
AcDbLinetypeTableRecord
  2
DASHDOTX2
 70
0
  3
Dash dot (2x) ____  .  ____  .  ____  .  ___
 72
65
 73
4
 40
50.7999999999999972
 49
25.3999999999999986
 74
0
 49
-12.6999999999999993
 74
0
 49
0.0
 74
0
 49
-12.6999999999999993
 74
0
  0
LTYPE
  5
52
100
AcDbSymbolTableRecord
100
AcDbLinetypeTableRecord
  2
PHANTOMX2
 70
0
  3
Phantom (2x) ____________    ____    ____   _
 72
65
 73
6
 40
127.0000000000000142
 49
63.5
 74
0
 49
-12.6999999999999993
 74
0
 49
12.6999999999999993
 74
0
 49
-12.6999999999999993
 74
0
 49
12.6999999999999993
 74
0
 49
-12.6999999999999993
 74
0
  0
LTYPE
  5
53
100
AcDbSymbolTableRecord
100
AcDbLinetypeTableRecord
  2
CENTER2
 70
0
  3
Center (.5x) ___ _ ___ _ ___ _ ___ _ ___ _ ___
 72
65
 73
4
 40
28.5750000000000028
 49
19.0500000000000007
 74
0
 49
-3.1749999999999998
 74
0
 49
3.1749999999999998
 74
0
 49
-3.1749999999999998
 74
0
  0
LTYPE
  5
15
100
AcDbSymbolTableRecord
100
AcDbLinetypeTableRecord
  2
BYLAYER
 70
0
  3

 72
65
 73
0
 40
0.0
  0
LTYPE
  5
54
100
AcDbSymbolTableRecord
100
AcDbLinetypeTableRecord
  2
ACAD_ISO07W100
 70
0
  3
ISO dot . . . . . . . . . . . . . . . . . . . . 
 72
65
 73
2
 40
3.0
 49
0.0
 74
0
 49
-3.0
 74
0
  0
LTYPE
  5
55
100
AcDbSymbolTableRecord
100
AcDbLinetypeTableRecord
  2
DOT2
 70
0
  3
Dot (.5x) ........................................
 72
65
 73
2
 40
3.1749999999999998
 49
0.0
 74
0
 49
-3.1749999999999998
 74
0
  0
LTYPE
  5
56
100
AcDbSymbolTableRecord
100
AcDbLinetypeTableRecord
  2
ACAD_ISO11W100
 70
0
  3
ISO double-dash dot __ __ . __ __ . __ __ . __ _
 72
65
 73
6
 40
33.0
 49
12.0
 74
0
 49
-3.0
 74
0
 49
12.0
 74
0
 49
-3.0
 74
0
 49
0.0
 74
0
 49
-3.0
 74
0
  0
LTYPE
  5
57
100
AcDbSymbolTableRecord
100
AcDbLinetypeTableRecord
  2
DIVIDEX2
 70
0
  3
Divide (2x) ________  .  .  ________  .  .  _
 72
65
 73
6
 40
63.5
 49
25.3999999999999986
 74
0
 49
-12.6999999999999993
 74
0
 49
0.0
 74
0
 49
-12.6999999999999993
 74
0
 49
0.0
 74
0
 49
-12.6999999999999993
 74
0
  0
ENDTAB
  0
TABLE
  2
LAYER
  5
2
100
AcDbSymbolTable
 70
1
  0
LAYER
  5
10
100
AcDbSymbolTableRecord
100
AcDbLayerTableRecord
  2
0
 70
0
 62
7
420
16777215
  6
CONTINUOUS
370
0
390
F
  0
ENDTAB
  0
TABLE
  2
STYLE
  5
3
100
AcDbSymbolTable
 70
1
  0
STYLE
  5
58
100
AcDbSymbolTableRecord
100
AcDbTextStyleTableRecord
  2
Standard
 70
0
 40
0.0
 41
1.0
 50
0.0
 71
0
 42
2.5
  3

  4

1001
ACAD
1000
txt
1071
0
  0
ENDTAB
  0
TABLE
  2
VIEW
  5
6
100
AcDbSymbolTable
 70
0
  0
ENDTAB
  0
TABLE
  2
UCS
  5
7
100
AcDbSymbolTable
 70
0
  0
ENDTAB
  0
TABLE
  2
APPID
  5
9
100
AcDbSymbolTable
 70
1
  0
APPID
  5
12
100
AcDbSymbolTableRecord
100
AcDbRegAppTableRecord
  2
ACAD
 70
0
  0
APPID
  5
59
100
AcDbSymbolTableRecord
100
AcDbRegAppTableRecord
  2
QCAD
 70
0
  0
ENDTAB
  0
TABLE
  2
DIMSTYLE
  5
A
100
AcDbSymbolTable
 70
1
100
AcDbDimStyleTable
 71
0
  0
DIMSTYLE
105
27
100
AcDbSymbolTableRecord
100
AcDbDimStyleTableRecord
  2
Standard
 41
0.18
 42
0.0625
 43
3.75
 44
0.18
 70
0
 73
0
 74
0
 77
1
 78
8
140
0.18
141
2.5
143
0.03937007874016
147
0.09
171
3
172
1
271
2
272
2
274
3
278
44
283
0
284
8
340
58
  0
ENDTAB
  0
TABLE
  2
BLOCK_RECORD
  5
1
100
AcDbSymbolTable
 70
1
  0
BLOCK_RECORD
  5
1F
100
AcDbSymbolTableRecord
100
AcDbBlockTableRecord
  2
*Model_Space
340
22
  0
BLOCK_RECORD
  5
1B
100
AcDbSymbolTableRecord
100
AcDbBlockTableRecord
  2
*Paper_Space
340
1E
  0
BLOCK_RECORD
  5
23
100
AcDbSymbolTableRecord
100
AcDbBlockTableRecord
  2
*Paper_Space0
340
26
  0
ENDTAB
  0
ENDSEC
  0
SECTION
  2
BLOCKS
  0
BLOCK
  5
20
100
AcDbEntity
  8
0
100
AcDbBlockBegin
  2
*Model_Space
 70
0
 10
0.0
 20
0.0
 30
0.0
  3
*Model_Space
  1

  0
ENDBLK
  5
21
100
AcDbEntity
  8
0
100
AcDbBlockEnd
  0
BLOCK
  5
1C
100
AcDbEntity
 67
1
  8
0
100
AcDbBlockBegin
  2
*Paper_Space
 70
0
 10
0.0
 20
0.0
 30
0.0
  3
*Paper_Space
  1

  0
ENDBLK
  5
1D
100
AcDbEntity
 67
1
  8
0
100
AcDbBlockEnd
  0
BLOCK
  5
24
100
AcDbEntity
  8
0
100
AcDbBlockBegin
  2
*Paper_Space0
 70
0
 10
0.0
 20
0.0
 30
0.0
  3
*Paper_Space0
  1

  0
ENDBLK
  5
25
100
AcDbEntity
  8
0
100
AcDbBlockEnd
  0
ENDSEC
  0
SECTION
  2
ENTITIES
  0
LINE
  5
5A
100
AcDbEntity
  8
0
 62
256
370
-1
 48
1.0
  6
CONTINUOUS
100
AcDbLine
 10
80.7085000000000008
 20
-111.8229999999999933
 30
0.0
 11
80.7720000000000056
 21
-112.6490000000000009
 31
0.0
  0
LINE
  5
5B
100
AcDbEntity
  8
0
 62
256
370
-1
 48
1.0
  6
CONTINUOUS
100
AcDbLine
 10
80.7720000000000056
 20
-112.6490000000000009
 30
0.0
 11
80.8990000000000009
 21
-114.1089999999999947
 31
0.0
  0
LINE
  5
5C
100
AcDbEntity
  8
0
 62
256
370
-1
 48
1.0
  6
CONTINUOUS
100
AcDbLine
 10
97.5948000000000064
 20
-143.2719999999999914
 30
0.0
 11
110.3199999999999932
 21
-135.9050000000000011
 31
0.0
  0
LINE
  5
5D
100
AcDbEntity
  8
0
 62
256
370
-1
 48
1.0
  6
CONTINUOUS
100
AcDbLine
 10
218.5120000000000005
 20
-42.9664000000000001
 30
0.0
 11
217.7959999999999923
 21
-42.6214000000000013
 31
0.0
  0
LINE
  5
5E
100
AcDbEntity
  8
0
 62
256
370
-1
 48
1.0
  6
CONTINUOUS
100
AcDbLine
 10
219.5020000000000095
 20
-44.1452000000000027
 30
0.0
 11
219.7050000000000125
 21
-44.8564000000000007
 31
0.0
  0
LINE
  5
5F
100
AcDbEntity
  8
0
 62
256
370
-1
 48
1.0
  6
CONTINUOUS
100
AcDbLine
 10
219.1330000000000098
 20
-43.5101999999999975
 30
0.0
 11
219.5020000000000095
 21
-44.1452000000000027
 31
0.0
  0
LINE
  5
60
100
AcDbEntity
  8
0
 62
256
370
-1
 48
1.0
  6
CONTINUOUS
100
AcDbLine
 10
175.7189999999999941
 20
-121.1940000000000026
 30
0.0
 11
218.1810000000000116
 21
-121.1940000000000026
 31
0.0
  0
LINE
  5
61
100
AcDbEntity
  8
0
 62
256
370
-1
 48
1.0
  6
CONTINUOUS
100
AcDbLine
 10
175.01400000000001
 20
-121.2650000000000006
 30
0.0
 11
175.7189999999999941
 21
-121.1940000000000026
 31
0.0
  0
LINE
  5
62
100
AcDbEntity
  8
0
 62
256
370
-1
 48
1.0
  6
CONTINUOUS
100
AcDbLine
 10
174.3559999999999945
 20
-121.4680000000000035
 30
0.0
 11
175.01400000000001
 21
-121.2650000000000006
 31
0.0
  0
LINE
  5
63
100
AcDbEntity
  8
0
 62
256
370
-1
 48
1.0
  6
CONTINUOUS
100
AcDbLine
 10
173.7620000000000005
 20
-121.7909999999999968
 30
0.0
 11
174.3559999999999945
 21
-121.4680000000000035
 31
0.0
  0
LINE
  5
64
100
AcDbEntity
  8
0
 62
256
370
-1
 48
1.0
  6
CONTINUOUS
100
AcDbLine
 10
173.2439999999999998
 20
-122.2180000000000035
 30
0.0
 11
173.7620000000000005
 21
-121.7909999999999968
 31
0.0
  0
LINE
  5
65
100
AcDbEntity
  8
0
 62
256
370
-1
 48
1.0
  6
CONTINUOUS
100
AcDbLine
 10
172.8170000000000073
 20
-122.7360000000000042
 30
0.0
 11
173.2439999999999998
 21
-122.2180000000000035
 31
0.0
  0
LINE
  5
66
100
AcDbEntity
  8
0
 62
256
370
-1
 48
1.0
  6
CONTINUOUS
100
AcDbLine
 10
172.4939999999999998
 20
-123.3310000000000031
 30
0.0
 11
172.8170000000000073
 21
-122.7360000000000042
 31
0.0
  0
LINE
  5
67
100
AcDbEntity
  8
0
 62
256
370
-1
 48
1.0
  6
CONTINUOUS
100
AcDbLine
 10
172.289999999999992
 20
-123.9879999999999995
 30
0.0
 11
172.4939999999999998
 21
-123.3310000000000031
 31
0.0
  0
LINE
  5
68
100
AcDbEntity
  8
0
 62
256
370
-1
 48
1.0
  6
CONTINUOUS
100
AcDbLine
 10
172.1939999999999884
 20
-124.695999999999998
 30
0.0
 11
172.289999999999992
 21
-123.9879999999999995
 31
0.0
  0
LINE
  5
69
100
AcDbEntity
  8
0
 62
256
370
-1
 48
1.0
  6
CONTINUOUS
100
AcDbLine
 10
217.7959999999999923
 20
-42.6214000000000013
 30
0.0
 11
171.7040000000000077
 21
-35.6869999999999976
 31
0.0
  0
LINE
  5
6A
100
AcDbEntity
  8
0
 62
256
370
-1
 48
1.0
  6
CONTINUOUS
100
AcDbLine
 10
171.5320000000000107
 20
-135.6490000000000009
 30
0.0
 11
171.2769999999999868
 21
-135.7870000000000061
 31
0.0
  0
LINE
  5
6B
100
AcDbEntity
  8
0
 62
256
370
-1
 48
1.0
  6
CONTINUOUS
100
AcDbLine
 10
171.7539999999999907
 20
-135.4660000000000082
 30
0.0
 11
171.5320000000000107
 21
-135.6490000000000009
 31
0.0
  0
LINE
  5
6C
100
AcDbEntity
  8
0
 62
256
370
-1
 48
1.0
  6
CONTINUOUS
100
AcDbLine
 10
171.9370000000000118
 20
-135.2439999999999998
 30
0.0
 11
171.7539999999999907
 21
-135.4660000000000082
 31
0.0
  0
LINE
  5
6D
100
AcDbEntity
  8
0
 62
256
370
-1
 48
1.0
  6
CONTINUOUS
100
AcDbLine
 10
172.0749999999999886
 20
-134.9890000000000043
 30
0.0
 11
171.9370000000000118
 21
-135.2439999999999998
 31
0.0
  0
LINE
  5
6E
100
AcDbEntity
  8
0
 62
256
370
-1
 48
1.0
  6
CONTINUOUS
100
AcDbLine
 10
172.1630000000000109
 20
-134.7079999999999984
 30
0.0
 11
172.0749999999999886
 21
-134.9890000000000043
 31
0.0
  0
LINE
  5
6F
100
AcDbEntity
  8
0
 62
256
370
-1
 48
1.0
  6
CONTINUOUS
100
AcDbLine
 10
172.1930000000000121
 20
-134.4279999999999973
 30
0.0
 11
172.1630000000000109
 21
-134.7079999999999984
 31
0.0
  0
LINE
  5
70
100
AcDbEntity
  8
0
 62
256
370
-1
 48
1.0
  6
CONTINUOUS
100
AcDbLine
 10
219.7050000000000125
 20
-44.8564000000000007
 30
0.0
 11
219.7050000000000125
 21
-119.6850000000000023
 31
0.0
  0
LINE
  5
71
100
AcDbEntity
  8
0
 62
256
370
-1
 48
1.0
  6
CONTINUOUS
100
AcDbLine
 10
81.1637000000000057
 20
-35.8697000000000017
 30
0.0
 11
81.3421000000000021
 21
-35.7730000000000032
 31
0.0
  0
LINE
  5
72
100
AcDbEntity
  8
0
 62
256
370
-1
 48
1.0
  6
CONTINUOUS
100
AcDbLine
 10
81.0083000000000055
 20
-35.9979000000000013
 30
0.0
 11
81.1637000000000057
 21
-35.8697000000000017
 31
0.0
  0
LINE
  5
73
100
AcDbEntity
  8
0
 62
256
370
-1
 48
1.0
  6
CONTINUOUS
100
AcDbLine
 10
80.8802000000000021
 20
-36.1531999999999982
 30
0.0
 11
81.0083000000000055
 21
-35.9979000000000013
 31
0.0
  0
LINE
  5
74
100
AcDbEntity
  8
0
 62
256
370
-1
 48
1.0
  6
CONTINUOUS
100
AcDbLine
 10
80.7834000000000003
 20
-36.3316000000000017
 30
0.0
 11
80.8802000000000021
 21
-36.1531999999999982
 31
0.0
  0
LINE
  5
75
100
AcDbEntity
  8
0
 62
256
370
-1
 48
1.0
  6
CONTINUOUS
100
AcDbLine
 10
80.7223000000000042
 20
-36.5287999999999968
 30
0.0
 11
80.7834000000000003
 21
-36.3316000000000017
 31
0.0
  0
LINE
  5
76
100
AcDbEntity
  8
0
 62
256
370
-1
 48
1.0
  6
CONTINUOUS
100
AcDbLine
 10
80.7002999999999986
 20
-36.7443999999999988
 30
0.0
 11
80.7223000000000042
 21
-36.5287999999999968
 31
0.0
  0
LINE
  5
77
100
AcDbEntity
  8
0
 62
256
370
-1
 48
1.0
  6
CONTINUOUS
100
AcDbLine
 10
81.5391999999999939
 20
-35.7117999999999967
 30
0.0
 11
81.754400000000004
 21
-35.6903000000000006
 31
0.0
  0
LINE
  5
78
100
AcDbEntity
  8
0
 62
256
370
-1
 48
1.0
  6
CONTINUOUS
100
AcDbLine
 10
81.3421000000000021
 20
-35.7730000000000032
 30
0.0
 11
81.5391999999999939
 21
-35.7117999999999967
 31
0.0
  0
LINE
  5
79
100
AcDbEntity
  8
0
 62
256
370
-1
 48
1.0
  6
CONTINUOUS
100
AcDbLine
 10
171.7040000000000077
 20
-35.6869999999999976
 30
0.0
 11
81.754400000000004
 21
-35.6903000000000006
 31
0.0
  0
LINE
  5
7A
100
AcDbEntity
  8
0
 62
256
370
-1
 48
1.0
  6
CONTINUOUS
100
AcDbLine
 10
80.644999999999996
 20
-110.6170000000000044
 30
0.0
 11
80.7002999999999986
 21
-36.7443999999999988
 31
0.0
  0
LINE
  5
7B
100
AcDbEntity
  8
0
 62
256
370
-1
 48
1.0
  6
CONTINUOUS
100
AcDbLine
 10
81.419700000000006
 20
-116.394999999999996
 30
0.0
 11
81.9784999999999968
 21
-117.6650000000000063
 31
0.0
  0
LINE
  5
7C
100
AcDbEntity
  8
0
 62
256
370
-1
 48
1.0
  6
CONTINUOUS
100
AcDbLine
 10
81.1530000000000058
 20
-115.3790000000000049
 30
0.0
 11
81.419700000000006
 21
-116.394999999999996
 31
0.0
  0
LINE
  5
7D
100
AcDbEntity
  8
0
 62
256
370
-1
 48
1.0
  6
CONTINUOUS
100
AcDbLine
 10
80.644999999999996
 20
-110.6170000000000044
 30
0.0
 11
80.7085000000000008
 21
-111.8229999999999933
 31
0.0
  0
LINE
  5
7E
100
AcDbEntity
  8
0
 62
256
370
-1
 48
1.0
  6
CONTINUOUS
100
AcDbLine
 10
97.4269000000000034
 20
-143.3569999999999993
 30
0.0
 11
97.5948000000000064
 21
-143.2719999999999914
 31
0.0
  0
LINE
  5
7F
100
AcDbEntity
  8
0
 62
256
370
-1
 48
1.0
  6
CONTINUOUS
100
AcDbLine
 10
97.2681999999999931
 20
-143.4039999999999964
 30
0.0
 11
97.4269000000000034
 21
-143.3569999999999993
 31
0.0
  0
LINE
  5
80
100
AcDbEntity
  8
0
 62
256
370
-1
 48
1.0
  6
CONTINUOUS
100
AcDbLine
 10
97.1192999999999955
 20
-143.4139999999999873
 30
0.0
 11
97.2681999999999931
 21
-143.4039999999999964
 31
0.0
  0
LINE
  5
81
100
AcDbEntity
  8
0
 62
256
370
-1
 48
1.0
  6
CONTINUOUS
100
AcDbLine
 10
96.9805000000000064
 20
-143.3859999999999957
 30
0.0
 11
97.1192999999999955
 21
-143.4139999999999873
 31
0.0
  0
LINE
  5
82
100
AcDbEntity
  8
0
 62
256
370
-1
 48
1.0
  6
CONTINUOUS
100
AcDbLine
 10
96.8522999999999996
 20
-143.3230000000000075
 30
0.0
 11
96.9805000000000064
 21
-143.3859999999999957
 31
0.0
  0
LINE
  5
83
100
AcDbEntity
  8
0
 62
256
370
-1
 48
1.0
  6
CONTINUOUS
100
AcDbLine
 10
96.7352999999999952
 20
-143.2230000000000132
 30
0.0
 11
96.8522999999999996
 21
-143.3230000000000075
 31
0.0
  0
LINE
  5
84
100
AcDbEntity
  8
0
 62
256
370
-1
 48
1.0
  6
CONTINUOUS
100
AcDbLine
 10
96.629800000000003
 20
-143.0879999999999939
 30
0.0
 11
96.7352999999999952
 21
-143.2230000000000132
 31
0.0
  0
LINE
  5
85
100
AcDbEntity
  8
0
 62
256
370
-1
 48
1.0
  6
CONTINUOUS
100
AcDbLine
 10
81.9784999999999968
 20
-117.6650000000000063
 30
0.0
 11
96.629800000000003
 21
-143.0879999999999939
 31
0.0
  0
LINE
  5
86
100
AcDbEntity
  8
0
 62
256
370
-1
 48
1.0
  6
CONTINUOUS
100
AcDbLine
 10
80.8990000000000009
 20
-114.1089999999999947
 30
0.0
 11
81.1530000000000058
 21
-115.3790000000000049
 31
0.0
  0
LINE
  5
87
100
AcDbEntity
  8
0
 62
256
370
-1
 48
1.0
  6
CONTINUOUS
100
AcDbLine
 10
110.3199999999999932
 20
-135.9050000000000011
 30
0.0
 11
170.6930000000000121
 21
-135.9050000000000011
 31
0.0
  0
LINE
  5
88
100
AcDbEntity
  8
0
 62
256
370
-1
 48
1.0
  6
CONTINUOUS
100
AcDbLine
 10
172.1939999999999884
 20
-124.695999999999998
 30
0.0
 11
172.1930000000000121
 21
-134.4279999999999973
 31
0.0
  0
LINE
  5
89
100
AcDbEntity
  8
0
 62
256
370
-1
 48
1.0
  6
CONTINUOUS
100
AcDbLine
 10
170.9960000000000093
 20
-135.875
 30
0.0
 11
170.6930000000000121
 21
-135.9050000000000011
 31
0.0
  0
LINE
  5
8A
100
AcDbEntity
  8
0
 62
256
370
-1
 48
1.0
  6
CONTINUOUS
100
AcDbLine
 10
171.2769999999999868
 20
-135.7870000000000061
 30
0.0
 11
170.9960000000000093
 21
-135.875
 31
0.0
  0
LINE
  5
8B
100
AcDbEntity
  8
0
 62
256
370
-1
 48
1.0
  6
CONTINUOUS
100
AcDbLine
 10
219.1330000000000098
 20
-43.5101999999999975
 30
0.0
 11
218.5120000000000005
 21
-42.9664000000000001
 31
0.0
  0
LINE
  5
8C
100
AcDbEntity
  8
0
 62
256
370
-1
 48
1.0
  6
CONTINUOUS
100
AcDbLine
 10
218.5
 20
-121.1659999999999968
 30
0.0
 11
218.1810000000000116
 21
-121.1940000000000026
 31
0.0
  0
LINE
  5
8D
100
AcDbEntity
  8
0
 62
256
370
-1
 48
1.0
  6
CONTINUOUS
100
AcDbLine
 10
218.7820000000000107
 20
-121.078000000000003
 30
0.0
 11
218.5
 21
-121.1659999999999968
 31
0.0
  0
LINE
  5
8E
100
AcDbEntity
  8
0
 62
256
370
-1
 48
1.0
  6
CONTINUOUS
100
AcDbLine
 10
219.0370000000000061
 20
-120.9399999999999977
 30
0.0
 11
218.7820000000000107
 21
-121.078000000000003
 31
0.0
  0
LINE
  5
8F
100
AcDbEntity
  8
0
 62
256
370
-1
 48
1.0
  6
CONTINUOUS
100
AcDbLine
 10
219.2589999999999861
 20
-120.757000000000005
 30
0.0
 11
219.0370000000000061
 21
-120.9399999999999977
 31
0.0
  0
LINE
  5
90
100
AcDbEntity
  8
0
 62
256
370
-1
 48
1.0
  6
CONTINUOUS
100
AcDbLine
 10
219.4420000000000073
 20
-120.5349999999999966
 30
0.0
 11
219.2589999999999861
 21
-120.757000000000005
 31
0.0
  0
LINE
  5
91
100
AcDbEntity
  8
0
 62
256
370
-1
 48
1.0
  6
CONTINUOUS
100
AcDbLine
 10
219.5800000000000125
 20
-120.2800000000000011
 30
0.0
 11
219.4420000000000073
 21
-120.5349999999999966
 31
0.0
  0
LINE
  5
92
100
AcDbEntity
  8
0
 62
256
370
-1
 48
1.0
  6
CONTINUOUS
100
AcDbLine
 10
219.6670000000000016
 20
-119.9989999999999952
 30
0.0
 11
219.5800000000000125
 21
-120.2800000000000011
 31
0.0
  0
LINE
  5
93
100
AcDbEntity
  8
0
 62
256
370
-1
 48
1.0
  6
CONTINUOUS
100
AcDbLine
 10
219.7050000000000125
 20
-119.6850000000000023
 30
0.0
 11
219.6670000000000016
 21
-119.9989999999999952
 31
0.0
  0
LINE
  5
94
100
AcDbEntity
  8
0
 62
256
370
-1
 48
1.0
  6
BYLAYER
100
AcDbLine
 10
107.4000000000000057
 20
-57.0
 30
0.0
 11
121.4000000000000057
 21
-57.0
 31
0.0
  0
LINE
  5
95
100
AcDbEntity
  8
0
 62
256
370
-1
 48
1.0
  6
BYLAYER
100
AcDbLine
 10
126.4499999999999886
 20
-54.6000000000000085
 30
0.0
 11
140.4499999999999886
 21
-54.6000000000000085
 31
0.0
  0
LINE
  5
96
100
AcDbEntity
  8
0
 62
256
370
-1
 48
1.0
  6
BYLAYER
100
AcDbLine
 10
145.5
 20
-53.2100000000000009
 30
0.0
 11
159.5
 21
-53.2100000000000009
 31
0.0
  0
LINE
  5
97
100
AcDbEntity
  8
0
 62
256
370
-1
 48
1.0
  6
BYLAYER
100
AcDbLine
 10
164.5500000000000114
 20
-54.6000000000000085
 30
0.0
 11
178.5500000000000114
 21
-54.6000000000000085
 31
0.0
  0
LINE
  5
98
100
AcDbEntity
  8
0
 62
256
370
-1
 48
1.0
  6
BYLAYER
100
AcDbLine
 10
183.6000000000000227
 20
-59.4000000000000057
 30
0.0
 11
197.6000000000000227
 21
-59.4000000000000057
 31
0.0
  0
LINE
  5
99
100
AcDbEntity
  8
0
 62
256
370
-1
 48
1.0
  6
BYLAYER
100
AcDbLine
 10
202.6500000000000057
 20
-60.8999999999999986
 30
0.0
 11
216.6500000000000057
 21
-60.8999999999999986
 31
0.0
  0
LINE
  5
9A
100
AcDbEntity
  8
0
 62
256
370
-1
 48
1.0
  6
BYLAYER
100
AcDbLine
 10
107.4000000000000057
 20
-76.0499999999999972
 30
0.0
 11
121.4000000000000057
 21
-76.0499999999999972
 31
0.0
  0
LINE
  5
9B
100
AcDbEntity
  8
0
 62
256
370
-1
 48
1.0
  6
BYLAYER
100
AcDbLine
 10
126.4499999999999886
 20
-73.6500000000000057
 30
0.0
 11
140.4499999999999886
 21
-73.6500000000000057
 31
0.0
  0
LINE
  5
9C
100
AcDbEntity
  8
0
 62
256
370
-1
 48
1.0
  6
BYLAYER
100
AcDbLine
 10
145.5
 20
-72.2599999999999909
 30
0.0
 11
159.5
 21
-72.2599999999999909
 31
0.0
  0
LINE
  5
9D
100
AcDbEntity
  8
0
 62
256
370
-1
 48
1.0
  6
BYLAYER
100
AcDbLine
 10
164.5500000000000114
 20
-73.6500000000000057
 30
0.0
 11
178.5500000000000114
 21
-73.6500000000000057
 31
0.0
  0
LINE
  5
9E
100
AcDbEntity
  8
0
 62
256
370
-1
 48
1.0
  6
BYLAYER
100
AcDbLine
 10
183.6000000000000227
 20
-78.4499999999999886
 30
0.0
 11
197.6000000000000227
 21
-78.4499999999999886
 31
0.0
  0
LINE
  5
9F
100
AcDbEntity
  8
0
 62
256
370
-1
 48
1.0
  6
BYLAYER
100
AcDbLine
 10
202.6500000000000057
 20
-79.9499999999999886
 30
0.0
 11
216.6500000000000057
 21
-79.9499999999999886
 31
0.0
  0
LINE
  5
A0
100
AcDbEntity
  8
0
 62
256
370
-1
 48
1.0
  6
BYLAYER
100
AcDbLine
 10
107.4000000000000057
 20
-95.0999999999999943
 30
0.0
 11
121.4000000000000057
 21
-95.0999999999999943
 31
0.0
  0
LINE
  5
A1
100
AcDbEntity
  8
0
 62
256
370
-1
 48
1.0
  6
BYLAYER
100
AcDbLine
 10
126.4499999999999886
 20
-92.7000000000000028
 30
0.0
 11
140.4499999999999886
 21
-92.7000000000000028
 31
0.0
  0
LINE
  5
A2
100
AcDbEntity
  8
0
 62
256
370
-1
 48
1.0
  6
BYLAYER
100
AcDbLine
 10
145.5
 20
-91.3100000000000023
 30
0.0
 11
159.5
 21
-91.3100000000000023
 31
0.0
  0
LINE
  5
A3
100
AcDbEntity
  8
0
 62
256
370
-1
 48
1.0
  6
BYLAYER
100
AcDbLine
 10
164.5500000000000114
 20
-92.7000000000000028
 30
0.0
 11
178.5500000000000114
 21
-92.7000000000000028
 31
0.0
  0
LINE
  5
A4
100
AcDbEntity
  8
0
 62
256
370
-1
 48
1.0
  6
BYLAYER
100
AcDbLine
 10
183.5999999999999943
 20
-97.5
 30
0.0
 11
197.5999999999999943
 21
-97.5
 31
0.0
  0
LINE
  5
A5
100
AcDbEntity
  8
0
 62
256
370
-1
 48
1.0
  6
BYLAYER
100
AcDbLine
 10
202.6499999999999773
 20
-99.0
 30
0.0
 11
216.6499999999999773
 21
-99.0
 31
0.0
  0
LINE
  5
A6
100
AcDbEntity
  8
0
 62
256
370
-1
 48
1.0
  6
BYLAYER
100
AcDbLine
 10
107.4000000000000057
 20
-114.1500000000000057
 30
0.0
 11
121.4000000000000057
 21
-114.1500000000000057
 31
0.0
  0
LINE
  5
A7
100
AcDbEntity
  8
0
 62
256
370
-1
 48
1.0
  6
BYLAYER
100
AcDbLine
 10
126.4499999999999886
 20
-111.75
 30
0.0
 11
140.4499999999999886
 21
-111.75
 31
0.0
  0
LINE
  5
A8
100
AcDbEntity
  8
0
 62
256
370
-1
 48
1.0
  6
BYLAYER
100
AcDbLine
 10
145.5
 20
-110.3600000000000136
 30
0.0
 11
159.5
 21
-110.3600000000000136
 31
0.0
  0
LINE
  5
A9
100
AcDbEntity
  8
0
 62
256
370
-1
 48
1.0
  6
BYLAYER
100
AcDbLine
 10
164.5500000000000114
 20
-111.7500000000000142
 30
0.0
 11
178.5500000000000114
 21
-111.7500000000000142
 31
0.0
  0
LINE
  5
AA
100
AcDbEntity
  8
0
 62
256
370
-1
 48
1.0
  6
BYLAYER
100
AcDbLine
 10
183.6000000000000227
 20
-116.5500000000000114
 30
0.0
 11
197.6000000000000227
 21
-116.5500000000000114
 31
0.0
  0
LINE
  5
AB
100
AcDbEntity
  8
0
 62
256
370
-1
 48
1.0
  6
BYLAYER
100
AcDbLine
 10
202.6500000000000057
 20
-118.0500000000000114
 30
0.0
 11
216.6500000000000057
 21
-118.0500000000000114
 31
0.0
  0
LINE
  5
AC
100
AcDbEntity
  8
0
 62
256
370
-1
 48
1.0
  6
BYLAYER
100
AcDbLine
 10
116.8500000000000227
 20
-133.1999999999999886
 30
0.0
 11
130.8500000000000227
 21
-133.1999999999999886
 31
0.0
  0
LINE
  5
AD
100
AcDbEntity
  8
0
 62
256
370
-1
 48
1.0
  6
BYLAYER
100
AcDbLine
 10
135.8979999999999961
 20
-131.828000000000003
 30
0.0
 11
149.8979999999999961
 21
-131.828000000000003
 31
0.0
  0
LINE
  5
AE
100
AcDbEntity
  8
0
 62
256
370
-1
 48
1.0
  6
BYLAYER
100
AcDbLine
 10
154.9499999999999886
 20
-130.7999999999999829
 30
0.0
 11
168.9499999999999886
 21
-130.7999999999999829
 31
0.0
  0
LINE
  5
AF
100
AcDbEntity
  8
0
 62
256
370
-1
 48
1.0
  6
BYLAYER
100
AcDbLine
 10
83.4747999999999877
 20
-105.2851499999999874
 30
0.0
 11
97.4747999999999877
 21
-105.2851499999999874
 31
0.0
  0
LINE
  5
B0
100
AcDbEntity
  8
0
 62
256
370
-1
 48
1.0
  6
BYLAYER
100
AcDbLine
 10
95.609022173508933
 20
-135.6096778264910654
 30
0.0
 11
107.7333778264910649
 21
-128.6096778264910654
 31
0.0
  0
LINE
  5
B1
100
AcDbEntity
  8
0
 62
256
370
-1
 48
1.0
  6
BYLAYER
100
AcDbLine
 10
121.4000000000000057
 20
-57.0
 30
0.0
 11
121.4000000000000057
 21
-43.0
 31
0.0
  0
LINE
  5
B2
100
AcDbEntity
  8
0
 62
256
370
-1
 48
1.0
  6
BYLAYER
100
AcDbLine
 10
140.4499999999999886
 20
-54.6000000000000085
 30
0.0
 11
140.4499999999999886
 21
-40.6000000000000085
 31
0.0
  0
LINE
  5
B3
100
AcDbEntity
  8
0
 62
256
370
-1
 48
1.0
  6
BYLAYER
100
AcDbLine
 10
159.5
 20
-53.2100000000000009
 30
0.0
 11
159.5
 21
-39.2100000000000009
 31
0.0
  0
LINE
  5
B4
100
AcDbEntity
  8
0
 62
256
370
-1
 48
1.0
  6
BYLAYER
100
AcDbLine
 10
178.5500000000000114
 20
-54.6000000000000085
 30
0.0
 11
178.5500000000000114
 21
-40.6000000000000085
 31
0.0
  0
LINE
  5
B5
100
AcDbEntity
  8
0
 62
256
370
-1
 48
1.0
  6
BYLAYER
100
AcDbLine
 10
197.6000000000000227
 20
-59.4000000000000057
 30
0.0
 11
197.6000000000000227
 21
-45.4000000000000057
 31
0.0
  0
LINE
  5
B6
100
AcDbEntity
  8
0
 62
256
370
-1
 48
1.0
  6
BYLAYER
100
AcDbLine
 10
216.6500000000000057
 20
-60.8999999999999986
 30
0.0
 11
216.6500000000000057
 21
-46.8999999999999986
 31
0.0
  0
LINE
  5
B7
100
AcDbEntity
  8
0
 62
256
370
-1
 48
1.0
  6
BYLAYER
100
AcDbLine
 10
121.4000000000000057
 20
-76.0499999999999972
 30
0.0
 11
121.4000000000000057
 21
-62.0499999999999972
 31
0.0
  0
LINE
  5
B8
100
AcDbEntity
  8
0
 62
256
370
-1
 48
1.0
  6
BYLAYER
100
AcDbLine
 10
140.4499999999999886
 20
-73.6500000000000057
 30
0.0
 11
140.4499999999999886
 21
-59.6500000000000057
 31
0.0
  0
LINE
  5
B9
100
AcDbEntity
  8
0
 62
256
370
-1
 48
1.0
  6
BYLAYER
100
AcDbLine
 10
159.5
 20
-72.2599999999999909
 30
0.0
 11
159.5
 21
-58.2599999999999909
 31
0.0
  0
LINE
  5
BA
100
AcDbEntity
  8
0
 62
256
370
-1
 48
1.0
  6
BYLAYER
100
AcDbLine
 10
178.5500000000000114
 20
-73.6500000000000057
 30
0.0
 11
178.5500000000000114
 21
-59.6500000000000057
 31
0.0
  0
LINE
  5
BB
100
AcDbEntity
  8
0
 62
256
370
-1
 48
1.0
  6
BYLAYER
100
AcDbLine
 10
197.6000000000000227
 20
-78.4499999999999886
 30
0.0
 11
197.6000000000000227
 21
-64.4499999999999886
 31
0.0
  0
LINE
  5
BC
100
AcDbEntity
  8
0
 62
256
370
-1
 48
1.0
  6
BYLAYER
100
AcDbLine
 10
216.6500000000000057
 20
-79.9499999999999886
 30
0.0
 11
216.6500000000000057
 21
-65.9499999999999886
 31
0.0
  0
LINE
  5
BD
100
AcDbEntity
  8
0
 62
256
370
-1
 48
1.0
  6
BYLAYER
100
AcDbLine
 10
121.4000000000000057
 20
-95.0999999999999943
 30
0.0
 11
121.4000000000000057
 21
-81.0999999999999943
 31
0.0
  0
LINE
  5
BE
100
AcDbEntity
  8
0
 62
256
370
-1
 48
1.0
  6
BYLAYER
100
AcDbLine
 10
140.4499999999999886
 20
-92.7000000000000028
 30
0.0
 11
140.4499999999999886
 21
-78.7000000000000028
 31
0.0
  0
LINE
  5
BF
100
AcDbEntity
  8
0
 62
256
370
-1
 48
1.0
  6
BYLAYER
100
AcDbLine
 10
159.5
 20
-91.3100000000000023
 30
0.0
 11
159.5
 21
-77.3100000000000023
 31
0.0
  0
LINE
  5
C0
100
AcDbEntity
  8
0
 62
256
370
-1
 48
1.0
  6
BYLAYER
100
AcDbLine
 10
178.5500000000000114
 20
-92.7000000000000028
 30
0.0
 11
178.5500000000000114
 21
-78.7000000000000028
 31
0.0
  0
LINE
  5
C1
100
AcDbEntity
  8
0
 62
256
370
-1
 48
1.0
  6
BYLAYER
100
AcDbLine
 10
197.5999999999999943
 20
-97.5
 30
0.0
 11
197.5999999999999943
 21
-83.5
 31
0.0
  0
LINE
  5
C2
100
AcDbEntity
  8
0
 62
256
370
-1
 48
1.0
  6
BYLAYER
100
AcDbLine
 10
216.6499999999999773
 20
-99.0
 30
0.0
 11
216.6499999999999773
 21
-85.0
 31
0.0
  0
LINE
  5
C3
100
AcDbEntity
  8
0
 62
256
370
-1
 48
1.0
  6
BYLAYER
100
AcDbLine
 10
121.4000000000000057
 20
-114.1500000000000057
 30
0.0
 11
121.4000000000000057
 21
-100.1500000000000057
 31
0.0
  0
LINE
  5
C4
100
AcDbEntity
  8
0
 62
256
370
-1
 48
1.0
  6
BYLAYER
100
AcDbLine
 10
140.4499999999999886
 20
-111.75
 30
0.0
 11
140.4499999999999886
 21
-97.75
 31
0.0
  0
LINE
  5
C5
100
AcDbEntity
  8
0
 62
256
370
-1
 48
1.0
  6
BYLAYER
100
AcDbLine
 10
159.5
 20
-110.3600000000000136
 30
0.0
 11
159.5
 21
-96.3600000000000136
 31
0.0
  0
LINE
  5
C6
100
AcDbEntity
  8
0
 62
256
370
-1
 48
1.0
  6
BYLAYER
100
AcDbLine
 10
178.5500000000000114
 20
-111.7500000000000142
 30
0.0
 11
178.5500000000000114
 21
-97.7500000000000142
 31
0.0
  0
LINE
  5
C7
100
AcDbEntity
  8
0
 62
256
370
-1
 48
1.0
  6
BYLAYER
100
AcDbLine
 10
197.6000000000000227
 20
-116.5500000000000114
 30
0.0
 11
197.6000000000000227
 21
-102.5500000000000114
 31
0.0
  0
LINE
  5
C8
100
AcDbEntity
  8
0
 62
256
370
-1
 48
1.0
  6
BYLAYER
100
AcDbLine
 10
216.6500000000000057
 20
-118.0500000000000114
 30
0.0
 11
216.6500000000000057
 21
-104.0500000000000114
 31
0.0
  0
LINE
  5
C9
100
AcDbEntity
  8
0
 62
256
370
-1
 48
1.0
  6
BYLAYER
100
AcDbLine
 10
130.8500000000000227
 20
-133.1999999999999886
 30
0.0
 11
130.8500000000000227
 21
-119.2000000000000028
 31
0.0
  0
LINE
  5
CA
100
AcDbEntity
  8
0
 62
256
370
-1
 48
1.0
  6
BYLAYER
100
AcDbLine
 10
149.8979999999999961
 20
-131.828000000000003
 30
0.0
 11
149.8979999999999961
 21
-117.828000000000003
 31
0.0
  0
LINE
  5
CB
100
AcDbEntity
  8
0
 62
256
370
-1
 48
1.0
  6
BYLAYER
100
AcDbLine
 10
168.9499999999999886
 20
-130.7999999999999829
 30
0.0
 11
168.9499999999999886
 21
-116.7999999999999829
 31
0.0
  0
LINE
  5
CC
100
AcDbEntity
  8
0
 62
256
370
-1
 48
1.0
  6
BYLAYER
100
AcDbLine
 10
97.4747999999999877
 20
-105.2851499999999874
 30
0.0
 11
97.4747999999999877
 21
-91.2851499999999874
 31
0.0
  0
LINE
  5
CD
100
AcDbEntity
  8
0
 62
256
370
-1
 48
1.0
  6
BYLAYER
100
AcDbLine
 10
107.7333778264910649
 20
-128.6096778264910654
 30
0.0
 11
100.7333778264910649
 21
-116.4853221735089335
 31
0.0
  0
LINE
  5
CE
100
AcDbEntity
  8
0
 62
256
370
-1
 48
1.0
  6
BYLAYER
100
AcDbLine
 10
121.4000000000000057
 20
-43.0
 30
0.0
 11
107.4000000000000057
 21
-43.0
 31
0.0
  0
LINE
  5
CF
100
AcDbEntity
  8
0
 62
256
370
-1
 48
1.0
  6
BYLAYER
100
AcDbLine
 10
140.4499999999999886
 20
-40.6000000000000085
 30
0.0
 11
126.4499999999999886
 21
-40.6000000000000085
 31
0.0
  0
LINE
  5
D0
100
AcDbEntity
  8
0
 62
256
370
-1
 48
1.0
  6
BYLAYER
100
AcDbLine
 10
159.5
 20
-39.2100000000000009
 30
0.0
 11
145.5
 21
-39.2100000000000009
 31
0.0
  0
LINE
  5
D1
100
AcDbEntity
  8
0
 62
256
370
-1
 48
1.0
  6
BYLAYER
100
AcDbLine
 10
178.5500000000000114
 20
-40.6000000000000085
 30
0.0
 11
164.5500000000000114
 21
-40.6000000000000085
 31
0.0
  0
LINE
  5
D2
100
AcDbEntity
  8
0
 62
256
370
-1
 48
1.0
  6
BYLAYER
100
AcDbLine
 10
197.6000000000000227
 20
-45.4000000000000057
 30
0.0
 11
183.6000000000000227
 21
-45.4000000000000057
 31
0.0
  0
LINE
  5
D3
100
AcDbEntity
  8
0
 62
256
370
-1
 48
1.0
  6
BYLAYER
100
AcDbLine
 10
216.6500000000000057
 20
-46.8999999999999986
 30
0.0
 11
202.6500000000000057
 21
-46.8999999999999986
 31
0.0
  0
LINE
  5
D4
100
AcDbEntity
  8
0
 62
256
370
-1
 48
1.0
  6
BYLAYER
100
AcDbLine
 10
121.4000000000000057
 20
-62.0499999999999972
 30
0.0
 11
107.4000000000000057
 21
-62.0499999999999972
 31
0.0
  0
LINE
  5
D5
100
AcDbEntity
  8
0
 62
256
370
-1
 48
1.0
  6
BYLAYER
100
AcDbLine
 10
140.4499999999999886
 20
-59.6500000000000057
 30
0.0
 11
126.4499999999999886
 21
-59.6500000000000057
 31
0.0
  0
LINE
  5
D6
100
AcDbEntity
  8
0
 62
256
370
-1
 48
1.0
  6
BYLAYER
100
AcDbLine
 10
159.5
 20
-58.2599999999999909
 30
0.0
 11
145.5
 21
-58.2599999999999909
 31
0.0
  0
LINE
  5
D7
100
AcDbEntity
  8
0
 62
256
370
-1
 48
1.0
  6
BYLAYER
100
AcDbLine
 10
178.5500000000000114
 20
-59.6500000000000057
 30
0.0
 11
164.5500000000000114
 21
-59.6500000000000057
 31
0.0
  0
LINE
  5
D8
100
AcDbEntity
  8
0
 62
256
370
-1
 48
1.0
  6
BYLAYER
100
AcDbLine
 10
197.6000000000000227
 20
-64.4499999999999886
 30
0.0
 11
183.6000000000000227
 21
-64.4499999999999886
 31
0.0
  0
LINE
  5
D9
100
AcDbEntity
  8
0
 62
256
370
-1
 48
1.0
  6
BYLAYER
100
AcDbLine
 10
216.6500000000000057
 20
-65.9499999999999886
 30
0.0
 11
202.6500000000000057
 21
-65.9499999999999886
 31
0.0
  0
LINE
  5
DA
100
AcDbEntity
  8
0
 62
256
370
-1
 48
1.0
  6
BYLAYER
100
AcDbLine
 10
121.4000000000000057
 20
-81.0999999999999943
 30
0.0
 11
107.4000000000000057
 21
-81.0999999999999943
 31
0.0
  0
LINE
  5
DB
100
AcDbEntity
  8
0
 62
256
370
-1
 48
1.0
  6
BYLAYER
100
AcDbLine
 10
140.4499999999999886
 20
-78.7000000000000028
 30
0.0
 11
126.4499999999999886
 21
-78.7000000000000028
 31
0.0
  0
LINE
  5
DC
100
AcDbEntity
  8
0
 62
256
370
-1
 48
1.0
  6
BYLAYER
100
AcDbLine
 10
159.5
 20
-77.3100000000000023
 30
0.0
 11
145.5
 21
-77.3100000000000023
 31
0.0
  0
LINE
  5
DD
100
AcDbEntity
  8
0
 62
256
370
-1
 48
1.0
  6
BYLAYER
100
AcDbLine
 10
178.5500000000000114
 20
-78.7000000000000028
 30
0.0
 11
164.5500000000000114
 21
-78.7000000000000028
 31
0.0
  0
LINE
  5
DE
100
AcDbEntity
  8
0
 62
256
370
-1
 48
1.0
  6
BYLAYER
100
AcDbLine
 10
197.5999999999999943
 20
-83.5
 30
0.0
 11
183.5999999999999943
 21
-83.5
 31
0.0
  0
LINE
  5
DF
100
AcDbEntity
  8
0
 62
256
370
-1
 48
1.0
  6
BYLAYER
100
AcDbLine
 10
216.6499999999999773
 20
-85.0
 30
0.0
 11
202.6499999999999773
 21
-85.0
 31
0.0
  0
LINE
  5
E0
100
AcDbEntity
  8
0
 62
256
370
-1
 48
1.0
  6
BYLAYER
100
AcDbLine
 10
121.4000000000000057
 20
-100.1500000000000057
 30
0.0
 11
107.4000000000000057
 21
-100.1500000000000057
 31
0.0
  0
LINE
  5
E1
100
AcDbEntity
  8
0
 62
256
370
-1
 48
1.0
  6
BYLAYER
100
AcDbLine
 10
140.4499999999999886
 20
-97.75
 30
0.0
 11
126.4499999999999886
 21
-97.75
 31
0.0
  0
LINE
  5
E2
100
AcDbEntity
  8
0
 62
256
370
-1
 48
1.0
  6
BYLAYER
100
AcDbLine
 10
159.5
 20
-96.3600000000000136
 30
0.0
 11
145.5
 21
-96.3600000000000136
 31
0.0
  0
LINE
  5
E3
100
AcDbEntity
  8
0
 62
256
370
-1
 48
1.0
  6
BYLAYER
100
AcDbLine
 10
178.5500000000000114
 20
-97.7500000000000142
 30
0.0
 11
164.5500000000000114
 21
-97.7500000000000142
 31
0.0
  0
LINE
  5
E4
100
AcDbEntity
  8
0
 62
256
370
-1
 48
1.0
  6
BYLAYER
100
AcDbLine
 10
197.6000000000000227
 20
-102.5500000000000114
 30
0.0
 11
183.6000000000000227
 21
-102.5500000000000114
 31
0.0
  0
LINE
  5
E5
100
AcDbEntity
  8
0
 62
256
370
-1
 48
1.0
  6
BYLAYER
100
AcDbLine
 10
216.6500000000000057
 20
-104.0500000000000114
 30
0.0
 11
202.6500000000000057
 21
-104.0500000000000114
 31
0.0
  0
LINE
  5
E6
100
AcDbEntity
  8
0
 62
256
370
-1
 48
1.0
  6
BYLAYER
100
AcDbLine
 10
130.8500000000000227
 20
-119.2000000000000028
 30
0.0
 11
116.8500000000000227
 21
-119.2000000000000028
 31
0.0
  0
LINE
  5
E7
100
AcDbEntity
  8
0
 62
256
370
-1
 48
1.0
  6
BYLAYER
100
AcDbLine
 10
149.8979999999999961
 20
-117.828000000000003
 30
0.0
 11
135.8979999999999961
 21
-117.828000000000003
 31
0.0
  0
LINE
  5
E8
100
AcDbEntity
  8
0
 62
256
370
-1
 48
1.0
  6
BYLAYER
100
AcDbLine
 10
168.9499999999999886
 20
-116.7999999999999829
 30
0.0
 11
154.9499999999999886
 21
-116.7999999999999829
 31
0.0
  0
LINE
  5
E9
100
AcDbEntity
  8
0
 62
256
370
-1
 48
1.0
  6
BYLAYER
100
AcDbLine
 10
97.4747999999999877
 20
-91.2851499999999874
 30
0.0
 11
83.4747999999999877
 21
-91.2851499999999874
 31
0.0
  0
LINE
  5
EA
100
AcDbEntity
  8
0
 62
256
370
-1
 48
1.0
  6
BYLAYER
100
AcDbLine
 10
100.7333778264910649
 20
-116.4853221735089335
 30
0.0
 11
88.609022173508933
 21
-123.4853221735089335
 31
0.0
  0
LINE
  5
EB
100
AcDbEntity
  8
0
 62
256
370
-1
 48
1.0
  6
BYLAYER
100
AcDbLine
 10
107.4000000000000057
 20
-43.0
 30
0.0
 11
107.4000000000000057
 21
-57.0
 31
0.0
  0
LINE
  5
EC
100
AcDbEntity
  8
0
 62
256
370
-1
 48
1.0
  6
BYLAYER
100
AcDbLine
 10
126.4499999999999886
 20
-40.6000000000000085
 30
0.0
 11
126.4499999999999886
 21
-54.6000000000000085
 31
0.0
  0
LINE
  5
ED
100
AcDbEntity
  8
0
 62
256
370
-1
 48
1.0
  6
BYLAYER
100
AcDbLine
 10
145.5
 20
-39.2100000000000009
 30
0.0
 11
145.5
 21
-53.2100000000000009
 31
0.0
  0
LINE
  5
EE
100
AcDbEntity
  8
0
 62
256
370
-1
 48
1.0
  6
BYLAYER
100
AcDbLine
 10
164.5500000000000114
 20
-40.6000000000000085
 30
0.0
 11
164.5500000000000114
 21
-54.6000000000000085
 31
0.0
  0
LINE
  5
EF
100
AcDbEntity
  8
0
 62
256
370
-1
 48
1.0
  6
BYLAYER
100
AcDbLine
 10
183.6000000000000227
 20
-45.4000000000000057
 30
0.0
 11
183.6000000000000227
 21
-59.4000000000000057
 31
0.0
  0
LINE
  5
F0
100
AcDbEntity
  8
0
 62
256
370
-1
 48
1.0
  6
BYLAYER
100
AcDbLine
 10
202.6500000000000057
 20
-46.8999999999999986
 30
0.0
 11
202.6500000000000057
 21
-60.8999999999999986
 31
0.0
  0
LINE
  5
F1
100
AcDbEntity
  8
0
 62
256
370
-1
 48
1.0
  6
BYLAYER
100
AcDbLine
 10
107.4000000000000057
 20
-62.0499999999999972
 30
0.0
 11
107.4000000000000057
 21
-76.0499999999999972
 31
0.0
  0
LINE
  5
F2
100
AcDbEntity
  8
0
 62
256
370
-1
 48
1.0
  6
BYLAYER
100
AcDbLine
 10
126.4499999999999886
 20
-59.6500000000000057
 30
0.0
 11
126.4499999999999886
 21
-73.6500000000000057
 31
0.0
  0
LINE
  5
F3
100
AcDbEntity
  8
0
 62
256
370
-1
 48
1.0
  6
BYLAYER
100
AcDbLine
 10
145.5
 20
-58.2599999999999909
 30
0.0
 11
145.5
 21
-72.2599999999999909
 31
0.0
  0
LINE
  5
F4
100
AcDbEntity
  8
0
 62
256
370
-1
 48
1.0
  6
BYLAYER
100
AcDbLine
 10
164.5500000000000114
 20
-59.6500000000000057
 30
0.0
 11
164.5500000000000114
 21
-73.6500000000000057
 31
0.0
  0
LINE
  5
F5
100
AcDbEntity
  8
0
 62
256
370
-1
 48
1.0
  6
BYLAYER
100
AcDbLine
 10
183.6000000000000227
 20
-64.4499999999999886
 30
0.0
 11
183.6000000000000227
 21
-78.4499999999999886
 31
0.0
  0
LINE
  5
F6
100
AcDbEntity
  8
0
 62
256
370
-1
 48
1.0
  6
BYLAYER
100
AcDbLine
 10
202.6500000000000057
 20
-65.9499999999999886
 30
0.0
 11
202.6500000000000057
 21
-79.9499999999999886
 31
0.0
  0
LINE
  5
F7
100
AcDbEntity
  8
0
 62
256
370
-1
 48
1.0
  6
BYLAYER
100
AcDbLine
 10
107.4000000000000057
 20
-81.0999999999999943
 30
0.0
 11
107.4000000000000057
 21
-95.0999999999999943
 31
0.0
  0
LINE
  5
F8
100
AcDbEntity
  8
0
 62
256
370
-1
 48
1.0
  6
BYLAYER
100
AcDbLine
 10
126.4499999999999886
 20
-78.7000000000000028
 30
0.0
 11
126.4499999999999886
 21
-92.7000000000000028
 31
0.0
  0
LINE
  5
F9
100
AcDbEntity
  8
0
 62
256
370
-1
 48
1.0
  6
BYLAYER
100
AcDbLine
 10
145.5
 20
-77.3100000000000023
 30
0.0
 11
145.5
 21
-91.3100000000000023
 31
0.0
  0
LINE
  5
FA
100
AcDbEntity
  8
0
 62
256
370
-1
 48
1.0
  6
BYLAYER
100
AcDbLine
 10
164.5500000000000114
 20
-78.7000000000000028
 30
0.0
 11
164.5500000000000114
 21
-92.7000000000000028
 31
0.0
  0
LINE
  5
FB
100
AcDbEntity
  8
0
 62
256
370
-1
 48
1.0
  6
BYLAYER
100
AcDbLine
 10
183.5999999999999943
 20
-83.5
 30
0.0
 11
183.5999999999999943
 21
-97.5
 31
0.0
  0
LINE
  5
FC
100
AcDbEntity
  8
0
 62
256
370
-1
 48
1.0
  6
BYLAYER
100
AcDbLine
 10
202.6499999999999773
 20
-85.0
 30
0.0
 11
202.6499999999999773
 21
-99.0
 31
0.0
  0
LINE
  5
FD
100
AcDbEntity
  8
0
 62
256
370
-1
 48
1.0
  6
BYLAYER
100
AcDbLine
 10
107.4000000000000057
 20
-100.1500000000000057
 30
0.0
 11
107.4000000000000057
 21
-114.1500000000000057
 31
0.0
  0
LINE
  5
FE
100
AcDbEntity
  8
0
 62
256
370
-1
 48
1.0
  6
BYLAYER
100
AcDbLine
 10
126.4499999999999886
 20
-97.75
 30
0.0
 11
126.4499999999999886
 21
-111.75
 31
0.0
  0
LINE
  5
FF
100
AcDbEntity
  8
0
 62
256
370
-1
 48
1.0
  6
BYLAYER
100
AcDbLine
 10
145.5
 20
-96.3600000000000136
 30
0.0
 11
145.5
 21
-110.3600000000000136
 31
0.0
  0
LINE
  5
100
100
AcDbEntity
  8
0
 62
256
370
-1
 48
1.0
  6
BYLAYER
100
AcDbLine
 10
164.5500000000000114
 20
-97.7500000000000142
 30
0.0
 11
164.5500000000000114
 21
-111.7500000000000142
 31
0.0
  0
LINE
  5
101
100
AcDbEntity
  8
0
 62
256
370
-1
 48
1.0
  6
BYLAYER
100
AcDbLine
 10
183.6000000000000227
 20
-102.5500000000000114
 30
0.0
 11
183.6000000000000227
 21
-116.5500000000000114
 31
0.0
  0
LINE
  5
102
100
AcDbEntity
  8
0
 62
256
370
-1
 48
1.0
  6
BYLAYER
100
AcDbLine
 10
202.6500000000000057
 20
-104.0500000000000114
 30
0.0
 11
202.6500000000000057
 21
-118.0500000000000114
 31
0.0
  0
LINE
  5
103
100
AcDbEntity
  8
0
 62
256
370
-1
 48
1.0
  6
BYLAYER
100
AcDbLine
 10
116.8500000000000227
 20
-119.2000000000000028
 30
0.0
 11
116.8500000000000227
 21
-133.1999999999999886
 31
0.0
  0
LINE
  5
104
100
AcDbEntity
  8
0
 62
256
370
-1
 48
1.0
  6
BYLAYER
100
AcDbLine
 10
135.8979999999999961
 20
-117.828000000000003
 30
0.0
 11
135.8979999999999961
 21
-131.828000000000003
 31
0.0
  0
LINE
  5
105
100
AcDbEntity
  8
0
 62
256
370
-1
 48
1.0
  6
BYLAYER
100
AcDbLine
 10
154.9499999999999886
 20
-116.7999999999999829
 30
0.0
 11
154.9499999999999886
 21
-130.7999999999999829
 31
0.0
  0
LINE
  5
106
100
AcDbEntity
  8
0
 62
256
370
-1
 48
1.0
  6
BYLAYER
100
AcDbLine
 10
83.4747999999999877
 20
-91.2851499999999874
 30
0.0
 11
83.4747999999999877
 21
-105.2851499999999874
 31
0.0
  0
LINE
  5
107
100
AcDbEntity
  8
0
 62
256
370
-1
 48
1.0
  6
BYLAYER
100
AcDbLine
 10
88.609022173508933
 20
-123.4853221735089335
 30
0.0
 11
95.609022173508933
 21
-135.6096778264910654
 31
0.0
  0
LINE
  5
108
100
AcDbEntity
  8
0
 62
256
370
-1
 48
1.0
  6
BYLAYER
100
AcDbLine
 10
85.0300000000000011
 20
-71.0899999999999892
 30
0.0
 11
98.2299999999999898
 21
-71.0899999999999892
 31
0.0
  0
LINE
  5
109
100
AcDbEntity
  8
0
 62
256
370
-1
 48
1.0
  6
BYLAYER
100
AcDbLine
 10
98.2299999999999898
 20
-71.0899999999999892
 30
0.0
 11
98.2299999999999898
 21
-40.3899999999999935
 31
0.0
  0
LINE
  5
10A
100
AcDbEntity
  8
0
 62
256
370
-1
 48
1.0
  6
BYLAYER
100
AcDbLine
 10
98.2299999999999898
 20
-40.3899999999999935
 30
0.0
 11
85.0300000000000011
 21
-40.3899999999999935
 31
0.0
  0
LINE
  5
10B
100
AcDbEntity
  8
0
 62
256
370
-1
 48
1.0
  6
BYLAYER
100
AcDbLine
 10
85.0300000000000011
 20
-40.3899999999999935
 30
0.0
 11
85.0300000000000011
 21
-71.0899999999999892
 31
0.0
  0
CIRCLE
  5
10C
100
AcDbEntity
  8
0
 62
256
370
-1
 48
1.0
  6
BYLAYER
100
AcDbCircle
 10
98.8949000000000069
 20
-114.109499999999997
 30
0.0
 40
1.3500000000000001
  0
CIRCLE
  5
10D
100
AcDbEntity
  8
0
 62
256
370
-1
 48
1.0
  6
BYLAYER
100
AcDbCircle
 10
124.3253799999999956
 20
-57.409080000000003
 30
0.0
 40
1.3500000000000001
  0
CIRCLE
  5
10E
100
AcDbEntity
  8
0
 62
256
370
-1
 48
1.0
  6
BYLAYER
100
AcDbCircle
 10
124.3965000000000032
 20
-95.5674999999999955
 30
0.0
 40
1.3500000000000001
  0
CIRCLE
  5
10F
100
AcDbEntity
  8
0
 62
256
370
-1
 48
1.0
  6
BYLAYER
100
AcDbCircle
 10
199.6999999999999886
 20
-61.7999999999999972
 30
0.0
 40
1.3500000000000001
  0
CIRCLE
  5
110
100
AcDbEntity
  8
0
 62
256
370
-1
 48
1.0
  6
BYLAYER
100
AcDbCircle
 10
199.6999999999999886
 20
-100.0
 30
0.0
 40
1.3500000000000001
  0
ENDSEC
  0
SECTION
  2
OBJECTS
  0
DICTIONARY
  5
C
100
AcDbDictionary
280
0
281
1
  3
ACAD_GROUP
350
D
  3
ACAD_LAYOUT
350
1A
  3
ACAD_MLINESTYLE
350
17
  3
ACAD_PLOTSETTINGS
350
19
  3
ACAD_PLOTSTYLENAME
350
E
  3
AcDbVariableDictionary
350
111
  3
QCAD_OBJECTS
350
112
  0
DICTIONARY
  5
D
100
AcDbDictionary
280
0
281
1
  0
ACDBDICTIONARYWDFLT
  5
E
100
AcDbDictionary
281
1
  3
Normal
350
F
100
AcDbDictionaryWithDefault
340
F
  0
ACDBPLACEHOLDER
  5
F
  0
DICTIONARY
  5
17
100
AcDbDictionary
280
0
281
1
  3
Standard
350
18
  0
MLINESTYLE
  5
18
100
AcDbMlineStyle
  2
STANDARD
 70
0
  3

 62
256
 51
90.0
 52
90.0
 71
2
 49
0.5
 62
256
  6
BYLAYER
 49
-0.5
 62
256
  6
BYLAYER
  0
DICTIONARY
  5
19
100
AcDbDictionary
280
0
281
1
  0
DICTIONARY
  5
1A
100
AcDbDictionary
281
1
  3
Layout1
350
1E
  3
Layout2
350
26
  3
Model
350
22
  0
LAYOUT
  5
1E
100
AcDbPlotSettings
  1

  2
none_device
  4

  6

 40
0.0
 41
0.0
 42
0.0
 43
0.0
 44
0.0
 45
0.0
 46
0.0
 47
0.0
 48
0.0
 49
0.0
140
0.0
141
0.0
142
1.0
143
1.0
 70
688
 72
0
 73
0
 74
5
  7

 75
16
147
1.0
148
0.0
149
0.0
100
AcDbLayout
  1
Layout1
 70
1
 71
1
 10
0.0
 20
0.0
 11
420.0
 21
297.0
 12
0.0
 22
0.0
 32
0.0
 14
100000000000000000000.0
 24
100000000000000000000.0
 34
100000000000000000000.0
 15
-100000000000000000000.0
 25
-100000000000000000000.0
 35
-100000000000000000000.0
146
0.0
 13
0.0
 23
0.0
 33
0.0
 16
1.0
 26
0.0
 36
0.0
 17
0.0
 27
1.0
 37
0.0
 76
0
330
1B
  0
LAYOUT
  5
22
100
AcDbPlotSettings
  1

  2
none_device
  4

  6

 40
0.0
 41
0.0
 42
0.0
 43
0.0
 44
0.0
 45
0.0
 46
0.0
 47
0.0
 48
0.0
 49
0.0
140
0.0
141
0.0
142
1.0
143
1.0
 70
1712
 72
0
 73
0
 74
0
  7

 75
0
147
1.0
148
0.0
149
0.0
100
AcDbLayout
  1
Model
 70
1
 71
0
 10
0.0
 20
0.0
 11
12.0
 21
9.0
 12
0.0
 22
0.0
 32
0.0
 14
0.0
 24
0.0
 34
0.0
 15
0.0
 25
0.0
 35
0.0
146
0.0
 13
0.0
 23
0.0
 33
0.0
 16
1.0
 26
0.0
 36
0.0
 17
0.0
 27
1.0
 37
0.0
 76
0
330
1F
  0
LAYOUT
  5
26
100
AcDbPlotSettings
  1

  2
none_device
  4

  6

 40
0.0
 41
0.0
 42
0.0
 43
0.0
 44
0.0
 45
0.0
 46
0.0
 47
0.0
 48
0.0
 49
0.0
140
0.0
141
0.0
142
1.0
143
1.0
 70
688
 72
0
 73
0
 74
5
  7

 75
16
147
1.0
148
0.0
149
0.0
100
AcDbLayout
  1
Layout2
 70
1
 71
2
 10
0.0
 20
0.0
 11
12.0
 21
9.0
 12
0.0
 22
0.0
 32
0.0
 14
0.0
 24
0.0
 34
0.0
 15
0.0
 25
0.0
 35
0.0
146
0.0
 13
0.0
 23
0.0
 33
0.0
 16
1.0
 26
0.0
 36
0.0
 17
0.0
 27
1.0
 37
0.0
 76
0
330
23
  0
DICTIONARY
  5
111
100
AcDbDictionary
281
1
  3
DIMASSOC
350
114
  3
HIDETEXT
350
113
  0
DICTIONARYVAR
  5
113
100
DictionaryVariables
280
0
  1
2
  0
DICTIONARYVAR
  5
114
100
DictionaryVariables
280
0
  1
1
  0
DICTIONARY
  5
112
100
AcDbDictionary
281
1
  3
ColorSettings/BackgroundColor
350
115
  3
ColorSettings/ColorMode
350
116
  3
Grid/DisplayGrid00
350
117
  3
Grid/DisplayGrid01
350
118
  3
Grid/DisplayGrid02
350
119
  3
Grid/DisplayGrid03
350
11A
  3
Grid/GridSpacingX00
350
11B
  3
Grid/GridSpacingX01
350
11C
  3
Grid/GridSpacingX02
350
11D
  3
Grid/GridSpacingX03
350
11E
  3
Grid/GridSpacingY00
350
11F
  3
Grid/GridSpacingY01
350
120
  3
Grid/GridSpacingY02
350
121
  3
Grid/GridSpacingY03
350
122
  3
Grid/IsometricGrid00
350
123
  3
Grid/IsometricGrid01
350
124
  3
Grid/IsometricGrid02
350
125
  3
Grid/IsometricGrid03
350
126
  3
Grid/IsometricProjection00
350
127
  3
Grid/IsometricProjection01
350
128
  3
Grid/IsometricProjection02
350
129
  3
Grid/IsometricProjection03
350
12A
  3
Grid/MetaGridSpacingX00
350
12B
  3
Grid/MetaGridSpacingX01
350
12C
  3
Grid/MetaGridSpacingX02
350
12D
  3
Grid/MetaGridSpacingX03
350
12E
  3
Grid/MetaGridSpacingY00
350
12F
  3
Grid/MetaGridSpacingY01
350
130
  3
Grid/MetaGridSpacingY02
350
131
  3
Grid/MetaGridSpacingY03
350
132
  3
MultiPageSettings/Columns
350
133
  3
MultiPageSettings/GlueMarginsBottom
350
134
  3
MultiPageSettings/GlueMarginsLeft
350
135
  3
MultiPageSettings/GlueMarginsRight
350
136
  3
MultiPageSettings/GlueMarginsTop
350
137
  3
MultiPageSettings/PrintCropMarks
350
138
  3
MultiPageSettings/Rows
350
139
  3
PageSettings/OffsetX
350
13A
  3
PageSettings/OffsetY
350
13B
  3
PageSettings/PageOrientation
350
13C
  3
PageSettings/PaperHeight
350
13D
  3
PageSettings/PaperWidth
350
13E
  3
PageSettings/Scale
350
13F
  3
PageSettings/ShowPaperBorders
350
140
  3
PageTagSettings/EnablePageTags
350
141
  3
PageTagSettings/TagAlignment
350
142
  3
PageTagSettings/TagFont
350
143
  3
PageTagSettings/TagPosition
350
144
  3
QCADVersion
350
145
  3
UnitSettings/PaperUnit
350
146
  3
ViewportCenter
350
147
  3
ViewportHeight
350
148
  3
ViewportWidth
350
149
  0
XRECORD
  5
115
330
112
100
AcDbXrecord
280
1
1000
White
  0
XRECORD
  5
116
330
112
100
AcDbXrecord
280
1
1000
FullColor
  0
XRECORD
  5
117
330
112
100
AcDbXrecord
280
1
290
1
  0
XRECORD
  5
118
330
112
100
AcDbXrecord
280
1
290
1
  0
XRECORD
  5
119
330
112
100
AcDbXrecord
280
1
290
1
  0
XRECORD
  5
11A
330
112
100
AcDbXrecord
280
1
290
1
  0
XRECORD
  5
11B
330
112
100
AcDbXrecord
280
1
1000
auto
  0
XRECORD
  5
11C
330
112
100
AcDbXrecord
280
1
1000
auto
  0
XRECORD
  5
11D
330
112
100
AcDbXrecord
280
1
1000
auto
  0
XRECORD
  5
11E
330
112
100
AcDbXrecord
280
1
1000
auto
  0
XRECORD
  5
11F
330
112
100
AcDbXrecord
280
1
1000
auto
  0
XRECORD
  5
120
330
112
100
AcDbXrecord
280
1
1000
auto
  0
XRECORD
  5
121
330
112
100
AcDbXrecord
280
1
1000
auto
  0
XRECORD
  5
122
330
112
100
AcDbXrecord
280
1
1000
auto
  0
XRECORD
  5
123
330
112
100
AcDbXrecord
280
1
290
0
  0
XRECORD
  5
124
330
112
100
AcDbXrecord
280
1
290
0
  0
XRECORD
  5
125
330
112
100
AcDbXrecord
280
1
290
0
  0
XRECORD
  5
126
330
112
100
AcDbXrecord
280
1
290
0
  0
XRECORD
  5
127
330
112
100
AcDbXrecord
280
1
 90
65537
  0
XRECORD
  5
128
330
112
100
AcDbXrecord
280
1
 90
65537
  0
XRECORD
  5
129
330
112
100
AcDbXrecord
280
1
 90
65537
  0
XRECORD
  5
12A
330
112
100
AcDbXrecord
280
1
 90
65537
  0
XRECORD
  5
12B
330
112
100
AcDbXrecord
280
1
1000
auto
  0
XRECORD
  5
12C
330
112
100
AcDbXrecord
280
1
1000
auto
  0
XRECORD
  5
12D
330
112
100
AcDbXrecord
280
1
1000
auto
  0
XRECORD
  5
12E
330
112
100
AcDbXrecord
280
1
1000
auto
  0
XRECORD
  5
12F
330
112
100
AcDbXrecord
280
1
1000
auto
  0
XRECORD
  5
130
330
112
100
AcDbXrecord
280
1
1000
auto
  0
XRECORD
  5
131
330
112
100
AcDbXrecord
280
1
1000
auto
  0
XRECORD
  5
132
330
112
100
AcDbXrecord
280
1
1000
auto
  0
XRECORD
  5
133
330
112
100
AcDbXrecord
280
1
 90
1
  0
XRECORD
  5
134
330
112
100
AcDbXrecord
280
1
 40
0.5
  0
XRECORD
  5
135
330
112
100
AcDbXrecord
280
1
 40
0.5
  0
XRECORD
  5
136
330
112
100
AcDbXrecord
280
1
 40
0.5
  0
XRECORD
  5
137
330
112
100
AcDbXrecord
280
1
 40
0.5
  0
XRECORD
  5
138
330
112
100
AcDbXrecord
280
1
290
0
  0
XRECORD
  5
139
330
112
100
AcDbXrecord
280
1
 90
1
  0
XRECORD
  5
13A
330
112
100
AcDbXrecord
280
1
 40
0.0
  0
XRECORD
  5
13B
330
112
100
AcDbXrecord
280
1
 40
0.0
  0
XRECORD
  5
13C
330
112
100
AcDbXrecord
280
1
1000
Portrait
  0
XRECORD
  5
13D
330
112
100
AcDbXrecord
280
1
 40
11.0
  0
XRECORD
  5
13E
330
112
100
AcDbXrecord
280
1
 40
8.5
  0
XRECORD
  5
13F
330
112
100
AcDbXrecord
280
1
1000
1:1
  0
XRECORD
  5
140
330
112
100
AcDbXrecord
280
1
290
1
  0
XRECORD
  5
141
330
112
100
AcDbXrecord
280
1
290
0
  0
XRECORD
  5
142
330
112
100
AcDbXrecord
280
1
1000
Inside
  0
XRECORD
  5
143
330
112
100
AcDbXrecord
280
1
1000
Arial,10,-1,5,50,0,0,0,0,0
  0
XRECORD
  5
144
330
112
100
AcDbXrecord
280
1
1000
TopLeft
  0
XRECORD
  5
145
330
112
100
AcDbXrecord
280
1
1000
3.26.0
  0
XRECORD
  5
146
330
112
100
AcDbXrecord
280
1
 90
1
  0
XRECORD
  5
148
330
112
100
AcDbXrecord
280
1
 40
139.0129688622752724
  0
XRECORD
  5
149
330
112
100
AcDbXrecord
280
1
 40
292.3531796407182242
  0
ENDSEC
  0
EOF
